<?xml version="1.0" encoding="UTF-8" standalone="no"?><svg xmlns="http://www.w3.org/2000/svg" xmlns:xlink="http://www.w3.org/1999/xlink" contentStyleType="text/css" height="170px" preserveAspectRatio="none" style="width:891px;height:170px;background:#FFFFFF;" version="1.1" viewBox="0 0 891 170" width="891px" zoomAndPan="magnify"><defs/><g><!--MD5=[741902e3e3b1d1de8ce9f4f02279fcfe]
class OwnerController--><g id="elem_OwnerController"><rect codeLine="1" fill="#F1F1F1" height="48" id="OwnerController" rx="2.5" ry="2.5" style="stroke:#181818;stroke-width:0.5;" width="135" x="7" y="7"/><ellipse cx="22" cy="23" fill="#ADD1B2" rx="11" ry="11" style="stroke:#181818;stroke-width:1.0;"/><path d="M24,19.5 Q24.2031,19 24.4375,18.75 Q24.6719,18.5 24.9375,18.5 Q25.4063,18.5 25.7031,18.7813 Q26,19.0625 26,19.7188 L26,21.2813 Q26,21.9375 25.7188,22.2188 Q25.4375,22.5 25,22.5 Q24.6094,22.5 24.3594,22.3281 Q24.1094,22.1563 24,21.7031 Q23.9531,21.3906 23.7813,21.2188 Q23.4688,20.8906 22.9063,20.7031 Q22.3438,20.5 21.7813,20.5 Q21.0781,20.5 20.4844,20.7813 Q19.9063,21.0625 19.4531,21.6875 Q19,22.3125 19,23.1719 L19,24.0938 Q19,25.125 19.8438,25.8125 Q20.6875,26.5 22.1875,26.5 Q23.0781,26.5 23.7031,26.2969 Q24.0625,26.1875 24.4688,25.8281 Q24.7344,25.625 24.875,25.5625 Q25.0156,25.5 25.1875,25.5 Q25.5156,25.5 25.75,25.7656 Q26,26.0156 26,26.375 Q26,26.7188 25.6563,27.125 Q25.1563,27.7188 24.3594,28.0469 Q23.3125,28.5 22.0313,28.5 Q20.5313,28.5 19.3281,27.9063 Q18.3594,27.4375 17.6719,26.4219 Q17,25.4063 17,24.2031 L17,23.1094 Q17,21.8594 17.5938,20.7656 Q18.2031,19.6719 19.25,19.0938 Q20.3125,18.5 21.5,18.5 Q22.2188,18.5 22.8438,18.75 Q23.4688,19 24,19.5 Z " fill="#000000"/><text fill="#000000" font-family="sans-serif" font-size="14" lengthAdjust="spacing" textLength="103" x="36" y="28.7285">OwnerController</text><line style="stroke:#181818;stroke-width:0.5;" x1="8" x2="141" y1="39" y2="39"/><line style="stroke:#181818;stroke-width:0.5;" x1="8" x2="141" y1="47" y2="47"/></g><!--MD5=[1694002c828dea395e5c4a77f70ed3d4]
class ClientService--><g id="elem_ClientService"><rect codeLine="3" fill="#F1F1F1" height="48" id="ClientService" rx="2.5" ry="2.5" style="stroke:#181818;stroke-width:0.5;" width="115" x="179" y="115"/><ellipse cx="194" cy="131" fill="#ADD1B2" rx="11" ry="11" style="stroke:#181818;stroke-width:1.0;"/><path d="M196,127.5 Q196.2031,127 196.4375,126.75 Q196.6719,126.5 196.9375,126.5 Q197.4063,126.5 197.7031,126.7813 Q198,127.0625 198,127.7188 L198,129.2813 Q198,129.9375 197.7188,130.2188 Q197.4375,130.5 197,130.5 Q196.6094,130.5 196.3594,130.3281 Q196.1094,130.1563 196,129.7031 Q195.9531,129.3906 195.7813,129.2188 Q195.4688,128.8906 194.9063,128.7031 Q194.3438,128.5 193.7813,128.5 Q193.0781,128.5 192.4844,128.7813 Q191.9063,129.0625 191.4531,129.6875 Q191,130.3125 191,131.1719 L191,132.0938 Q191,133.125 191.8438,133.8125 Q192.6875,134.5 194.1875,134.5 Q195.0781,134.5 195.7031,134.2969 Q196.0625,134.1875 196.4688,133.8281 Q196.7344,133.625 196.875,133.5625 Q197.0156,133.5 197.1875,133.5 Q197.5156,133.5 197.75,133.7656 Q198,134.0156 198,134.375 Q198,134.7188 197.6563,135.125 Q197.1563,135.7188 196.3594,136.0469 Q195.3125,136.5 194.0313,136.5 Q192.5313,136.5 191.3281,135.9063 Q190.3594,135.4375 189.6719,134.4219 Q189,133.4063 189,132.2031 L189,131.1094 Q189,129.8594 189.5938,128.7656 Q190.2031,127.6719 191.25,127.0938 Q192.3125,126.5 193.5,126.5 Q194.2188,126.5 194.8438,126.75 Q195.4688,127 196,127.5 Z " fill="#000000"/><text fill="#000000" font-family="sans-serif" font-size="14" lengthAdjust="spacing" textLength="83" x="208" y="136.7285">ClientService</text><line style="stroke:#181818;stroke-width:0.5;" x1="180" x2="293" y1="147" y2="147"/><line style="stroke:#181818;stroke-width:0.5;" x1="180" x2="293" y1="155" y2="155"/></g><!--MD5=[d78d013a473094dbe27b6a400b81a243]
class IClientService--><g id="elem_IClientService"><rect codeLine="5" fill="#F1F1F1" height="48" id="IClientService" rx="2.5" ry="2.5" style="stroke:#181818;stroke-width:0.5;" width="118" x="177.5" y="7"/><ellipse cx="192.5" cy="23" fill="#B4A7E5" rx="11" ry="11" style="stroke:#181818;stroke-width:1.0;"/><path d="M193.5,20 L193.5,26 L195.5,26 L195.9844,26 L196.5,26.625 L196.5,27 L196.5,27.375 L195.9844,28 L195.5,28 L189.5,28 L189.0156,28 L188.5,27.375 L188.5,27 L188.5,26.625 L189.0156,26 L189.5,26 L191.5,26 L191.5,20 L189.5,20 L189.0156,20 L188.5,19.375 L188.5,19 L188.5,18.625 L189.0156,18 L189.5,18 L195.5,18 L195.9844,18 L196.5,18.625 L196.5,19 L196.5,19.375 L195.9844,20 L195.5,20 L193.5,20 Z " fill="#000000"/><text fill="#000000" font-family="sans-serif" font-size="14" font-style="italic" lengthAdjust="spacing" textLength="86" x="206.5" y="28.7285">IClientService</text><line style="stroke:#181818;stroke-width:0.5;" x1="178.5" x2="294.5" y1="39" y2="39"/><line style="stroke:#181818;stroke-width:0.5;" x1="178.5" x2="294.5" y1="47" y2="47"/></g><!--MD5=[4b53f880c49e1401715f25754b054d68]
class IClientRepository--><g id="elem_IClientRepository"><rect codeLine="7" fill="#F1F1F1" height="48" id="IClientRepository" rx="2.5" ry="2.5" style="stroke:#181818;stroke-width:0.5;" width="140" x="329.5" y="115"/><ellipse cx="344.5" cy="131" fill="#B4A7E5" rx="11" ry="11" style="stroke:#181818;stroke-width:1.0;"/><path d="M345.5,128 L345.5,134 L347.5,134 L347.9844,134 L348.5,134.625 L348.5,135 L348.5,135.375 L347.9844,136 L347.5,136 L341.5,136 L341.0156,136 L340.5,135.375 L340.5,135 L340.5,134.625 L341.0156,134 L341.5,134 L343.5,134 L343.5,128 L341.5,128 L341.0156,128 L340.5,127.375 L340.5,127 L340.5,126.625 L341.0156,126 L341.5,126 L347.5,126 L347.9844,126 L348.5,126.625 L348.5,127 L348.5,127.375 L347.9844,128 L347.5,128 L345.5,128 Z " fill="#000000"/><text fill="#000000" font-family="sans-serif" font-size="14" font-style="italic" lengthAdjust="spacing" textLength="108" x="358.5" y="136.7285">IClientRepository</text><line style="stroke:#181818;stroke-width:0.5;" x1="330.5" x2="468.5" y1="147" y2="147"/><line style="stroke:#181818;stroke-width:0.5;" x1="330.5" x2="468.5" y1="155" y2="155"/></g><!--MD5=[16ed1fca6a394e48c7351167d0aab4d1]
class IOwnerRepository--><g id="elem_IOwnerRepository"><rect codeLine="9" fill="#F1F1F1" height="48" id="IOwnerRepository" rx="2.5" ry="2.5" style="stroke:#181818;stroke-width:0.5;" width="145" x="505" y="115"/><ellipse cx="520" cy="131" fill="#B4A7E5" rx="11" ry="11" style="stroke:#181818;stroke-width:1.0;"/><path d="M521,128 L521,134 L523,134 L523.4844,134 L524,134.625 L524,135 L524,135.375 L523.4844,136 L523,136 L517,136 L516.5156,136 L516,135.375 L516,135 L516,134.625 L516.5156,134 L517,134 L519,134 L519,128 L517,128 L516.5156,128 L516,127.375 L516,127 L516,126.625 L516.5156,126 L517,126 L523,126 L523.4844,126 L524,126.625 L524,127 L524,127.375 L523.4844,128 L523,128 L521,128 Z " fill="#000000"/><text fill="#000000" font-family="sans-serif" font-size="14" font-style="italic" lengthAdjust="spacing" textLength="113" x="534" y="136.7285">IOwnerRepository</text><line style="stroke:#181818;stroke-width:0.5;" x1="506" x2="649" y1="147" y2="147"/><line style="stroke:#181818;stroke-width:0.5;" x1="506" x2="649" y1="155" y2="155"/></g><!--MD5=[648611e10171f93773cfd106d6a9256b]
class ClientController--><g id="elem_ClientController"><rect codeLine="11" fill="#F1F1F1" height="48" id="ClientController" rx="2.5" ry="2.5" style="stroke:#181818;stroke-width:0.5;" width="130" x="570.5" y="7"/><ellipse cx="585.5" cy="23" fill="#ADD1B2" rx="11" ry="11" style="stroke:#181818;stroke-width:1.0;"/><path d="M587.5,19.5 Q587.7031,19 587.9375,18.75 Q588.1719,18.5 588.4375,18.5 Q588.9063,18.5 589.2031,18.7813 Q589.5,19.0625 589.5,19.7188 L589.5,21.2813 Q589.5,21.9375 589.2188,22.2188 Q588.9375,22.5 588.5,22.5 Q588.1094,22.5 587.8594,22.3281 Q587.6094,22.1563 587.5,21.7031 Q587.4531,21.3906 587.2813,21.2188 Q586.9688,20.8906 586.4063,20.7031 Q585.8438,20.5 585.2813,20.5 Q584.5781,20.5 583.9844,20.7813 Q583.4063,21.0625 582.9531,21.6875 Q582.5,22.3125 582.5,23.1719 L582.5,24.0938 Q582.5,25.125 583.3438,25.8125 Q584.1875,26.5 585.6875,26.5 Q586.5781,26.5 587.2031,26.2969 Q587.5625,26.1875 587.9688,25.8281 Q588.2344,25.625 588.375,25.5625 Q588.5156,25.5 588.6875,25.5 Q589.0156,25.5 589.25,25.7656 Q589.5,26.0156 589.5,26.375 Q589.5,26.7188 589.1563,27.125 Q588.6563,27.7188 587.8594,28.0469 Q586.8125,28.5 585.5313,28.5 Q584.0313,28.5 582.8281,27.9063 Q581.8594,27.4375 581.1719,26.4219 Q580.5,25.4063 580.5,24.2031 L580.5,23.1094 Q580.5,21.8594 581.0938,20.7656 Q581.7031,19.6719 582.75,19.0938 Q583.8125,18.5 585,18.5 Q585.7188,18.5 586.3438,18.75 Q586.9688,19 587.5,19.5 Z " fill="#000000"/><text fill="#000000" font-family="sans-serif" font-size="14" lengthAdjust="spacing" textLength="98" x="599.5" y="28.7285">ClientController</text><line style="stroke:#181818;stroke-width:0.5;" x1="571.5" x2="699.5" y1="39" y2="39"/><line style="stroke:#181818;stroke-width:0.5;" x1="571.5" x2="699.5" y1="47" y2="47"/></g><!--MD5=[f8b64f5bfe18a92c3d66759a7c08ffdf]
class IOwnerService--><g id="elem_IOwnerService"><rect codeLine="13" fill="#F1F1F1" height="48" id="IOwnerService" rx="2.5" ry="2.5" style="stroke:#181818;stroke-width:0.5;" width="123" x="761" y="7"/><ellipse cx="776" cy="23" fill="#B4A7E5" rx="11" ry="11" style="stroke:#181818;stroke-width:1.0;"/><path d="M777,20 L777,26 L779,26 L779.4844,26 L780,26.625 L780,27 L780,27.375 L779.4844,28 L779,28 L773,28 L772.5156,28 L772,27.375 L772,27 L772,26.625 L772.5156,26 L773,26 L775,26 L775,20 L773,20 L772.5156,20 L772,19.375 L772,19 L772,18.625 L772.5156,18 L773,18 L779,18 L779.4844,18 L780,18.625 L780,19 L780,19.375 L779.4844,20 L779,20 L777,20 Z " fill="#000000"/><text fill="#000000" font-family="sans-serif" font-size="14" font-style="italic" lengthAdjust="spacing" textLength="91" x="790" y="28.7285">IOwnerService</text><line style="stroke:#181818;stroke-width:0.5;" x1="762" x2="883" y1="39" y2="39"/><line style="stroke:#181818;stroke-width:0.5;" x1="762" x2="883" y1="47" y2="47"/></g><!--MD5=[8675fb00c98be14e88a8fdc8df21f721]
class OwnerService--><g id="elem_OwnerService"><rect codeLine="15" fill="#F1F1F1" height="48" id="OwnerService" rx="2.5" ry="2.5" style="stroke:#181818;stroke-width:0.5;" width="120" x="762.5" y="115"/><ellipse cx="777.5" cy="131" fill="#ADD1B2" rx="11" ry="11" style="stroke:#181818;stroke-width:1.0;"/><path d="M779.5,127.5 Q779.7031,127 779.9375,126.75 Q780.1719,126.5 780.4375,126.5 Q780.9063,126.5 781.2031,126.7813 Q781.5,127.0625 781.5,127.7188 L781.5,129.2813 Q781.5,129.9375 781.2188,130.2188 Q780.9375,130.5 780.5,130.5 Q780.1094,130.5 779.8594,130.3281 Q779.6094,130.1563 779.5,129.7031 Q779.4531,129.3906 779.2813,129.2188 Q778.9688,128.8906 778.4063,128.7031 Q777.8438,128.5 777.2813,128.5 Q776.5781,128.5 775.9844,128.7813 Q775.4063,129.0625 774.9531,129.6875 Q774.5,130.3125 774.5,131.1719 L774.5,132.0938 Q774.5,133.125 775.3438,133.8125 Q776.1875,134.5 777.6875,134.5 Q778.5781,134.5 779.2031,134.2969 Q779.5625,134.1875 779.9688,133.8281 Q780.2344,133.625 780.375,133.5625 Q780.5156,133.5 780.6875,133.5 Q781.0156,133.5 781.25,133.7656 Q781.5,134.0156 781.5,134.375 Q781.5,134.7188 781.1563,135.125 Q780.6563,135.7188 779.8594,136.0469 Q778.8125,136.5 777.5313,136.5 Q776.0313,136.5 774.8281,135.9063 Q773.8594,135.4375 773.1719,134.4219 Q772.5,133.4063 772.5,132.2031 L772.5,131.1094 Q772.5,129.8594 773.0938,128.7656 Q773.7031,127.6719 774.75,127.0938 Q775.8125,126.5 777,126.5 Q777.7188,126.5 778.3438,126.75 Q778.9688,127 779.5,127.5 Z " fill="#000000"/><text fill="#000000" font-family="sans-serif" font-size="14" lengthAdjust="spacing" textLength="88" x="791.5" y="136.7285">OwnerService</text><line style="stroke:#181818;stroke-width:0.5;" x1="763.5" x2="881.5" y1="147" y2="147"/><line style="stroke:#181818;stroke-width:0.5;" x1="763.5" x2="881.5" y1="155" y2="155"/></g><!--MD5=[5d9d7f361cf9aacac4ee237afb90f58a]
class JpaRepository--><g id="elem_JpaRepository"><rect fill="#F1F1F1" height="48" id="JpaRepository" rx="2.5" ry="2.5" style="stroke:#181818;stroke-width:0.5;" width="122" x="363.5" y="7"/><ellipse cx="378.5" cy="23" fill="#ADD1B2" rx="11" ry="11" style="stroke:#181818;stroke-width:1.0;"/><path d="M380.5,19.5 Q380.7031,19 380.9375,18.75 Q381.1719,18.5 381.4375,18.5 Q381.9063,18.5 382.2031,18.7813 Q382.5,19.0625 382.5,19.7188 L382.5,21.2813 Q382.5,21.9375 382.2188,22.2188 Q381.9375,22.5 381.5,22.5 Q381.1094,22.5 380.8594,22.3281 Q380.6094,22.1563 380.5,21.7031 Q380.4531,21.3906 380.2813,21.2188 Q379.9688,20.8906 379.4063,20.7031 Q378.8438,20.5 378.2813,20.5 Q377.5781,20.5 376.9844,20.7813 Q376.4063,21.0625 375.9531,21.6875 Q375.5,22.3125 375.5,23.1719 L375.5,24.0938 Q375.5,25.125 376.3438,25.8125 Q377.1875,26.5 378.6875,26.5 Q379.5781,26.5 380.2031,26.2969 Q380.5625,26.1875 380.9688,25.8281 Q381.2344,25.625 381.375,25.5625 Q381.5156,25.5 381.6875,25.5 Q382.0156,25.5 382.25,25.7656 Q382.5,26.0156 382.5,26.375 Q382.5,26.7188 382.1563,27.125 Q381.6563,27.7188 380.8594,28.0469 Q379.8125,28.5 378.5313,28.5 Q377.0313,28.5 375.8281,27.9063 Q374.8594,27.4375 374.1719,26.4219 Q373.5,25.4063 373.5,24.2031 L373.5,23.1094 Q373.5,21.8594 374.0938,20.7656 Q374.7031,19.6719 375.75,19.0938 Q376.8125,18.5 378,18.5 Q378.7188,18.5 379.3438,18.75 Q379.9688,19 380.5,19.5 Z " fill="#000000"/><text fill="#000000" font-family="sans-serif" font-size="14" lengthAdjust="spacing" textLength="90" x="392.5" y="28.7285">JpaRepository</text><line style="stroke:#181818;stroke-width:0.5;" x1="364.5" x2="484.5" y1="39" y2="39"/><line style="stroke:#181818;stroke-width:0.5;" x1="364.5" x2="484.5" y1="47" y2="47"/></g><!--MD5=[7cf2c6813d11a7a77bea3b27aeb46531]
reverse link IClientService to ClientService--><g id="link_IClientService_ClientService"><path codeLine="19" d="M236.5,75.02 C236.5,88.58 236.5,103.04 236.5,114.68 " fill="none" id="IClientService-backto-ClientService" style="stroke:#181818;stroke-width:1.0;stroke-dasharray:7.0,7.0;"/><polygon fill="none" points="229.5,75,236.5,55,243.5,75,229.5,75" style="stroke:#181818;stroke-width:1.0;"/></g><!--MD5=[54537a2865222ad15072b11ddf49f853]
reverse link JpaRepository to IClientRepository--><g id="link_JpaRepository_IClientRepository"><path codeLine="20" d="M414.47,74.54 C411.24,88.23 407.78,102.9 405,114.68 " fill="none" id="JpaRepository-backto-IClientRepository" style="stroke:#181818;stroke-width:1.0;"/><polygon fill="none" points="407.67,72.86,419.08,55,421.3,76.07,407.67,72.86" style="stroke:#181818;stroke-width:1.0;"/></g><!--MD5=[aa1e42264c74da59e29e050eb3014906]
reverse link JpaRepository to IOwnerRepository--><g id="link_JpaRepository_IOwnerRepository"><path codeLine="21" d="M474.31,66.51 C497.18,82.35 523.68,100.71 544.1,114.86 " fill="none" id="JpaRepository-backto-IOwnerRepository" style="stroke:#181818;stroke-width:1.0;"/><polygon fill="none" points="470.15,72.14,457.7,55,478.13,60.64,470.15,72.14" style="stroke:#181818;stroke-width:1.0;"/></g><!--MD5=[97177e0af4deaf95489f4d4a328d29c9]
reverse link IOwnerService to OwnerService--><g id="link_IOwnerService_OwnerService"><path codeLine="22" d="M822.5,75.02 C822.5,88.58 822.5,103.04 822.5,114.68 " fill="none" id="IOwnerService-backto-OwnerService" style="stroke:#181818;stroke-width:1.0;stroke-dasharray:7.0,7.0;"/><polygon fill="none" points="815.5,75,822.5,55,829.5,75,815.5,75" style="stroke:#181818;stroke-width:1.0;"/></g><!--MD5=[6c97a976b98042f3c4c35e73e1ee83f4]
@startuml
class OwnerController {
}
class ClientService {
}
interface IClientService {
}
interface IClientRepository {
}
interface IOwnerRepository {
}
class ClientController {
}
interface IOwnerService {
}
class OwnerService {
}


IClientService <|.. ClientService
JpaRepository <|- - IClientRepository
JpaRepository <|- - IOwnerRepository
IOwnerService <|.. OwnerService
@enduml

PlantUML version 1.2022.12(Sun Oct 23 15:12:26 ART 2022)
(GPL source distribution)
Java Runtime: OpenJDK Runtime Environment
JVM: OpenJDK 64-Bit Server VM
Default Encoding: Cp1252
Language: es
Country: MX
--></g></svg>